<svg width="24" height="24" viewBox="0 0 24 24" fill="none" xmlns="http://www.w3.org/2000/svg">
<path d="M12.2659 0.31311C8.72106 0.31311 5.56056 1.86786 3.41931 4.33274C2.76681 5.08461 2.20769 5.91974 1.76294 6.82311L5.70081 9.83099C6.15719 8.44611 7.03844 7.25774 8.19081 6.41699C9.33194 5.58561 10.7389 5.09436 12.2656 5.09436C13.9148 5.09436 15.4043 5.67899 16.5747 6.63524L19.9793 3.23549C17.9052 1.42874 15.2453 0.31311 12.2659 0.31311Z" fill="#FF7976"/>
<path d="M1.76318 6.82274L5.70106 9.83061C6.15743 8.44573 7.03868 7.25736 8.19106 6.41661C9.33218 5.58524 10.7392 5.09398 12.2658 5.09398C13.9151 5.09398 15.4046 5.67861 16.5749 6.63486L19.9796 3.23511C17.9047 1.42911 15.2452 0.31311 12.2658 0.31311" fill="#E3443A"/>
<path d="M5.3505 12C5.3505 11.8924 5.35838 11.7863 5.36325 11.6798C5.394 11.0363 5.50838 10.416 5.70113 9.83063L1.76325 6.82275C1.03913 8.29163 0.619125 9.93638 0.571875 11.6798C0.568875 11.7866 0.5625 11.8928 0.5625 12C0.5625 12.1076 0.568875 12.2141 0.5715 12.321C0.61875 14.0621 1.03875 15.7061 1.761 17.1735L5.69775 14.16C5.50688 13.5776 5.39325 12.96 5.36325 12.3206C5.35838 12.2141 5.3505 12.108 5.3505 12Z" fill="#F4D72C"/>
<path d="M1.76147 17.1735L5.69822 14.16C5.50735 13.5776 5.39372 12.96 5.36372 12.3206C5.35885 12.2138 5.35097 12.1076 5.35097 11.9996C5.35097 11.892 5.35885 11.7859 5.36372 11.6794C5.39447 11.0359 5.50885 10.4156 5.7016 9.83025L1.76335 6.82275" fill="#F7B92B"/>
<path d="M16.1528 17.8841C15.0979 18.5486 13.7693 18.906 12.2659 18.906C11.3862 18.906 10.5481 18.7387 9.77556 18.4414C9.20669 18.2224 8.67569 17.9295 8.19081 17.577C7.03881 16.7381 6.15719 15.5535 5.70081 14.1697L1.76294 17.1772C2.20694 18.0791 2.76494 18.9131 3.41631 19.6639C5.55756 22.1314 8.72031 23.6872 12.2659 23.6872C13.3384 23.6872 14.3926 23.544 15.3991 23.265C17.0723 22.8007 18.6143 21.9604 19.8912 20.7746L16.1528 17.8841Z" fill="#59C96E"/>
<path d="M1.76318 17.1772C2.20718 18.0791 2.76518 18.9131 3.41656 19.6639C5.55781 22.1314 8.72056 23.6872 12.2662 23.6872C13.3387 23.6872 14.3928 23.544 15.3993 23.265C17.0726 22.8007 18.6146 21.9604 19.8914 20.7746L16.1527 17.8845C15.0978 18.549 13.7692 18.9064 12.2658 18.9064C11.3861 18.9064 10.5479 18.7391 9.77543 18.4417C9.20656 18.2227 8.67556 17.9299 8.19068 17.5774" fill="#40A557"/>
<path d="M23.1716 9.75H22.47H12.375V11.6798V12.321V14.25H18.5434C18.2295 15.75 17.3753 17.1135 16.1528 17.8841L19.8915 20.7743C20.9167 19.8225 21.7684 18.6281 22.3811 17.2466C23.0531 15.7331 23.4375 13.9204 23.4375 11.9284C23.4375 11.2384 23.3314 10.5 23.1716 9.75Z" fill="#0FAEF4"/>
<path d="M19.8916 20.7743C20.9169 19.8225 21.776 18.6146 22.3887 17.2331C23.0607 15.7196 23.4414 13.9136 23.4414 11.922C23.4414 11.2316 23.3315 10.5 23.1717 9.75H22.5001" fill="#4087ED"/>
<path d="M12.375 11.625V12.321V14.25H18.375" fill="#4087ED"/>
</svg>
