<svg width="64" height="64" viewBox="0 0 64 64" fill="none" xmlns="http://www.w3.org/2000/svg">
<path d="M30.7787 53.3333H6.39882C4.04245 53.3333 2.13232 51.423 2.13232 49.0668V44.8H34.8769L30.7787 53.3333Z" fill="#FFE799"/>
<path d="M57.6031 19.2V37.1247V49.0665H6.39882C4.04245 49.0665 2.13232 47.1562 2.13232 44.7998V19.2L32.0011 8.5332L57.6031 19.2Z" fill="#FFF9E6"/>
<path d="M9.66702 27.7333H7.40039C6.84814 27.7333 6.40039 27.2856 6.40039 26.7333V24.4667C6.40039 23.9144 6.84814 23.4667 7.40039 23.4667H9.66702C10.2193 23.4667 10.667 23.9144 10.667 24.4667V26.7333C10.667 27.2856 10.2193 27.7333 9.66702 27.7333Z" fill="#BC8D00"/>
<path d="M18.2002 27.7333H15.9336C15.3813 27.7333 14.9336 27.2856 14.9336 26.7333V24.4667C14.9336 23.9144 15.3813 23.4667 15.9336 23.4667H18.2002C18.7525 23.4667 19.2002 23.9144 19.2002 24.4667V26.7333C19.2002 27.2856 18.7525 27.7333 18.2002 27.7333Z" fill="#BC8D00"/>
<path d="M26.7334 27.7333H24.4668C23.9145 27.7333 23.4668 27.2856 23.4668 26.7333V24.4667C23.4668 23.9144 23.9145 23.4667 24.4668 23.4667H26.7334C27.2857 23.4667 27.7334 23.9144 27.7334 24.4667V26.7333C27.7334 27.2856 27.2858 27.7333 26.7334 27.7333Z" fill="#BC8D00"/>
<path d="M35.2669 27.7333H33.0002C32.448 27.7333 32.0002 27.2856 32.0002 26.7333V24.4667C32.0002 23.9144 32.448 23.4667 33.0002 23.4667H35.2669C35.8191 23.4667 36.2669 23.9144 36.2669 24.4667V26.7333C36.2669 27.2856 35.8191 27.7333 35.2669 27.7333Z" fill="#BC8D00"/>
<path d="M43.7989 27.7333H41.5322C40.98 27.7333 40.5322 27.2856 40.5322 26.7333V24.4667C40.5322 23.9144 40.98 23.4667 41.5322 23.4667H43.7989C44.3511 23.4667 44.7989 23.9144 44.7989 24.4667V26.7333C44.7989 27.2856 44.3512 27.7333 43.7989 27.7333Z" fill="#BC8D00"/>
<path d="M52.3321 27.7333H50.0654C49.5132 27.7333 49.0654 27.2856 49.0654 26.7333V24.4667C49.0654 23.9144 49.5132 23.4667 50.0654 23.4667H52.3321C52.8843 23.4667 53.3321 23.9144 53.3321 24.4667V26.7333C53.3321 27.2856 52.8843 27.7333 52.3321 27.7333Z" fill="#BC8D00"/>
<path d="M9.66702 36.2666H7.40039C6.84814 36.2666 6.40039 35.8189 6.40039 35.2666V33C6.40039 32.4477 6.84814 32 7.40039 32H9.66702C10.2193 32 10.667 32.4477 10.667 33V35.2666C10.667 35.819 10.2193 36.2666 9.66702 36.2666Z" fill="#BC8D00"/>
<path d="M18.2002 36.2666H15.9336C15.3813 36.2666 14.9336 35.8189 14.9336 35.2666V33C14.9336 32.4477 15.3813 32 15.9336 32H18.2002C18.7525 32 19.2002 32.4477 19.2002 33V35.2666C19.2002 35.819 18.7525 36.2666 18.2002 36.2666Z" fill="#BC8D00"/>
<path d="M26.7334 36.2666H24.4668C23.9145 36.2666 23.4668 35.8189 23.4668 35.2666V33C23.4668 32.4477 23.9145 32 24.4668 32H26.7334C27.2857 32 27.7334 32.4477 27.7334 33V35.2666C27.7334 35.819 27.2858 36.2666 26.7334 36.2666Z" fill="#BC8D00"/>
<path d="M36.2669 36.2666V33.0666C36.2669 32.4775 35.7894 32 35.2002 32H33.0669C32.4777 32 32.0002 32.4775 32.0002 33.0666V35.2C32.0002 35.7891 32.4779 36.2666 33.0669 36.2666H36.2669Z" fill="#BC8D00"/>
<path d="M9.66702 44.7999H7.40039C6.84814 44.7999 6.40039 44.3522 6.40039 43.7999V41.5333C6.40039 40.9811 6.84814 40.5333 7.40039 40.5333H9.66702C10.2193 40.5333 10.667 40.9811 10.667 41.5333V43.7999C10.667 44.3522 10.2193 44.7999 9.66702 44.7999Z" fill="#BC8D00"/>
<path d="M18.2002 44.7999H15.9336C15.3813 44.7999 14.9336 44.3522 14.9336 43.7999V41.5333C14.9336 40.9811 15.3813 40.5333 15.9336 40.5333H18.2002C18.7525 40.5333 19.2002 40.9811 19.2002 41.5333V43.7999C19.2002 44.3522 18.7525 44.7999 18.2002 44.7999Z" fill="#BC8D00"/>
<path d="M26.7334 44.7999H24.4668C23.9145 44.7999 23.4668 44.3522 23.4668 43.7999V41.5333C23.4668 40.9811 23.9145 40.5333 24.4668 40.5333H26.7334C27.2857 40.5333 27.7334 40.9811 27.7334 41.5333V43.7999C27.7334 44.3522 27.2858 44.7999 26.7334 44.7999Z" fill="#BC8D00"/>
<path d="M52.3023 23.4667H50.096C49.9625 23.4667 49.8354 23.4929 49.7183 23.539C50.1001 23.6898 50.3706 24.0613 50.3706 24.4968V26.703C50.3706 27.1385 50.1 27.51 49.7183 27.6608C49.8354 27.707 49.9625 27.7333 50.096 27.7333H52.3023C52.8713 27.7333 53.3325 27.272 53.3325 26.7032V24.4969C53.3324 23.9279 52.8711 23.4667 52.3023 23.4667Z" fill="#BC8D00"/>
<path d="M43.7688 23.4667H41.5626C41.4291 23.4667 41.3019 23.4929 41.1848 23.539C41.5667 23.6898 41.8372 24.0613 41.8372 24.4968V26.703C41.8372 27.1385 41.5666 27.51 41.1848 27.6608C41.3019 27.707 41.4291 27.7333 41.5626 27.7333H43.7688C44.3378 27.7333 44.7989 27.272 44.7989 26.7032V24.4969C44.7989 23.9279 44.3378 23.4667 43.7688 23.4667Z" fill="#BC8D00"/>
<path d="M35.2368 23.4667H33.0306C32.8971 23.4667 32.77 23.4929 32.6528 23.539C33.0347 23.6898 33.3053 24.0613 33.3053 24.4968V26.703C33.3053 27.1385 33.0347 27.51 32.6528 27.6608C32.77 27.707 32.8971 27.7333 33.0306 27.7333H35.2368C35.8058 27.7333 36.2671 27.272 36.2671 26.7032V24.4969C36.267 23.9279 35.8057 23.4667 35.2368 23.4667Z" fill="#BC8D00"/>
<path d="M26.7036 23.4667H24.4974C24.3639 23.4667 24.2368 23.4929 24.1196 23.539C24.5015 23.6898 24.7721 24.0613 24.7721 24.4968V26.703C24.7721 27.1385 24.5015 27.51 24.1196 27.6608C24.2368 27.707 24.3639 27.7333 24.4974 27.7333H26.7036C27.2726 27.7333 27.7339 27.272 27.7339 26.7032V24.4969C27.7338 23.9279 27.2726 23.4667 26.7036 23.4667Z" fill="#BC8D00"/>
<path d="M18.1702 23.4667H15.9639C15.8304 23.4667 15.7033 23.4929 15.5862 23.539C15.9681 23.6898 16.2386 24.0613 16.2386 24.4968V26.703C16.2386 27.1385 15.9679 27.51 15.5862 27.6608C15.7033 27.707 15.8304 27.7333 15.9639 27.7333H18.1702C18.7392 27.7333 19.2004 27.272 19.2004 26.7032V24.4969C19.2004 23.9279 18.7392 23.4667 18.1702 23.4667Z" fill="#BC8D00"/>
<path d="M9.63698 23.4667H7.43073C7.29723 23.4667 7.1701 23.4929 7.05298 23.539C7.43485 23.6898 7.70548 24.0613 7.70548 24.4968V26.703C7.70548 27.1385 7.43485 27.51 7.05298 27.6608C7.1701 27.707 7.29723 27.7333 7.43073 27.7333H9.63698C10.206 27.7333 10.6672 27.272 10.6672 26.7032V24.4969C10.6671 23.9279 10.2059 23.4667 9.63698 23.4667Z" fill="#BC8D00"/>
<path d="M9.63698 32H7.43073C7.29723 32 7.1701 32.0263 7.05298 32.0724C7.43485 32.2231 7.70548 32.5946 7.70548 33.0301V35.2365C7.70548 35.672 7.43485 36.0435 7.05298 36.1942C7.1701 36.2405 7.29723 36.2668 7.43073 36.2668H9.63698C10.206 36.2668 10.6672 35.8055 10.6672 35.2366V33.0303C10.6671 32.4613 10.2059 32 9.63698 32Z" fill="#BC8D00"/>
<path d="M9.63698 40.5333H7.43073C7.29723 40.5333 7.1701 40.5596 7.05298 40.6057C7.43485 40.7565 7.70548 41.1279 7.70548 41.5634V43.7698C7.70548 44.2053 7.43485 44.5768 7.05298 44.7276C7.1701 44.7738 7.29723 44.8001 7.43073 44.8001H9.63698C10.206 44.8001 10.6672 44.3388 10.6672 43.77V41.5636C10.6671 40.9945 10.2059 40.5333 9.63698 40.5333Z" fill="#BC8D00"/>
<path d="M18.1702 32H15.9639C15.8304 32 15.7033 32.0263 15.5862 32.0724C15.9681 32.2231 16.2386 32.5946 16.2386 33.0301V35.2365C16.2386 35.672 15.9679 36.0435 15.5862 36.1942C15.7033 36.2405 15.8304 36.2668 15.9639 36.2668H18.1702C18.7392 36.2668 19.2004 35.8055 19.2004 35.2366V33.0303C19.2004 32.4613 18.7392 32 18.1702 32Z" fill="#BC8D00"/>
<path d="M18.1702 40.5333H15.9639C15.8304 40.5333 15.7033 40.5596 15.5862 40.6057C15.9681 40.7565 16.2386 41.1279 16.2386 41.5634V43.7698C16.2386 44.2053 15.9679 44.5768 15.5862 44.7276C15.7033 44.7738 15.8304 44.8001 15.9639 44.8001H18.1702C18.7392 44.8001 19.2004 44.3388 19.2004 43.77V41.5636C19.2004 40.9945 18.7392 40.5333 18.1702 40.5333Z" fill="#BC8D00"/>
<path d="M26.7036 32H24.4974C24.3639 32 24.2368 32.0263 24.1196 32.0724C24.5015 32.2231 24.7721 32.5946 24.7721 33.0301V35.2365C24.7721 35.672 24.5015 36.0435 24.1196 36.1942C24.2368 36.2405 24.3639 36.2668 24.4974 36.2668H26.7036C27.2726 36.2668 27.7339 35.8055 27.7339 35.2366V33.0303C27.7338 32.4613 27.2726 32 26.7036 32Z" fill="#BC8D00"/>
<path d="M36.2671 36.2666V33.0301C36.2671 32.4611 35.8058 32 35.2368 32H33.0306C32.8971 32 32.77 32.0263 32.6528 32.0724C33.0347 32.2231 33.3053 32.5946 33.3053 33.0301V35.2365C33.3053 35.672 33.0347 36.0435 32.6528 36.1942C32.77 36.2405 32.8971 36.2668 33.0306 36.2668H36.2671V36.2666Z" fill="#BC8D00"/>
<path d="M26.7036 40.5333H24.4974C24.3639 40.5333 24.2368 40.5596 24.1196 40.6057C24.5015 40.7565 24.7721 41.1279 24.7721 41.5634V43.7698C24.7721 44.2053 24.5015 44.5768 24.1196 44.7276C24.2368 44.7738 24.3639 44.8001 24.4974 44.8001H26.7036C27.2726 44.8001 27.7339 44.3388 27.7339 43.77V41.5636C27.7338 40.9945 27.2726 40.5333 26.7036 40.5333Z" fill="#BC8D00"/>
<path d="M54.6394 17.9651V37.1247V49.0666H57.6033V37.1247V19.2L54.6394 17.9651Z" fill="#FFE799"/>
<path d="M57.6031 19.2V8.53322C57.6031 6.17685 55.6928 4.26672 53.3366 4.26672H6.39882C4.04245 4.26672 2.13232 6.17685 2.13232 8.53322V19.2H57.6031Z" fill="#FDC10E"/>
<path d="M15.5761 9.49913H12.799C12.2655 9.49913 11.8333 9.06675 11.8333 8.53338C11.8333 8 12.2656 7.56763 12.799 7.56763H15.5761C16.1096 7.56763 16.5419 8 16.5419 8.53338C16.5419 9.06675 16.1095 9.49913 15.5761 9.49913Z" fill="#504E48"/>
<path d="M22.3989 9.49913H19.6218C19.0883 9.49913 18.656 9.06675 18.656 8.53338C18.656 8 19.0884 7.56763 19.6218 7.56763H22.3989C22.9324 7.56763 23.3646 8 23.3646 8.53338C23.3646 9.06675 22.9324 9.49913 22.3989 9.49913Z" fill="#504E48"/>
<path d="M40.1109 9.49913H37.3337C36.8002 9.49913 36.3679 9.06675 36.3679 8.53338C36.3679 8 36.8003 7.56763 37.3337 7.56763H40.1109C40.6444 7.56763 41.0767 8 41.0767 8.53338C41.0767 9.06675 40.6444 9.49913 40.1109 9.49913Z" fill="#504E48"/>
<path d="M46.9337 9.49913H44.1564C43.6229 9.49913 43.1907 9.06675 43.1907 8.53338C43.1907 8 43.6231 7.56763 44.1564 7.56763H46.9337C47.4672 7.56763 47.8994 8 47.8994 8.53338C47.8994 9.06675 47.467 9.49913 46.9337 9.49913Z" fill="#504E48"/>
<path d="M20.2656 8C20.2656 9.47275 19.0717 10.6666 17.599 10.6666C16.1262 10.6666 14.9324 9.47275 14.9324 8V2.66663C14.9322 1.19388 16.1261 0 17.5989 0C19.0716 0 20.2655 1.19388 20.2655 2.66663V8H20.2656Z" fill="#FFF9E6"/>
<path d="M44.8004 8C44.8004 9.47275 43.6065 10.6666 42.1338 10.6666C40.661 10.6666 39.467 9.47275 39.467 8V2.66663C39.467 1.19388 40.6609 0 42.1337 0C43.6064 0 44.8003 1.19388 44.8003 2.66663V8H44.8004Z" fill="#FFF9E6"/>
<path d="M42.1338 0C41.5863 0 41.0778 0.1655 40.6543 0.4485C41.3699 0.92675 41.8415 1.74137 41.8415 2.66675V8C41.8415 8.92525 41.3699 9.74 40.6543 10.2183C41.0777 10.5011 41.5863 10.6667 42.1338 10.6667C43.6065 10.6667 44.8004 9.47287 44.8004 8.00012V2.66663C44.8005 1.19388 43.6067 0 42.1338 0V0Z" fill="#FFE799"/>
<path d="M17.5989 0C17.0514 0 16.5429 0.1655 16.1194 0.4485C16.835 0.92675 17.3066 1.74137 17.3066 2.66675V8C17.3066 8.92525 16.835 9.74 16.1194 10.2183C16.5428 10.5011 17.0514 10.6667 17.5989 10.6667C19.0716 10.6667 20.2655 9.47287 20.2655 8.00012V2.66663C20.2656 1.19388 19.0718 0 17.5989 0V0Z" fill="#FFE799"/>
<path d="M53.3367 4.2666H50.3738C52.7302 4.2666 54.6403 6.17673 54.6403 8.5331V19.2H57.603V8.53323C57.6032 6.17685 55.6929 4.2666 53.3367 4.2666Z" fill="#504E48"/>
<path d="M2.13232 13.9675H57.6032V15.8992H2.13232V13.9675Z" fill="#504E48"/>
<path d="M45.8679 64C54.7045 64 61.8679 56.8366 61.8679 48C61.8679 39.1634 54.7045 32 45.8679 32C37.0314 32 29.8679 39.1634 29.8679 48C29.8679 56.8366 37.0314 64 45.8679 64Z" fill="#FDC10E"/>
<path d="M45.8679 59.7334C52.3481 59.7334 57.6013 54.4801 57.6013 48C57.6013 41.5198 52.3481 36.2666 45.8679 36.2666C39.3877 36.2666 34.1345 41.5198 34.1345 48C34.1345 54.4801 39.3877 59.7334 45.8679 59.7334Z" fill="#FFF9E6"/>
<path d="M45.8678 46.8324C45.3343 46.8324 44.9021 46.4 44.9021 45.8666V40.5333C44.9021 39.9999 45.3345 39.5675 45.8678 39.5675C46.4013 39.5675 46.8336 39.9999 46.8336 40.5333V45.8666C46.8336 46.4 46.4012 46.8324 45.8678 46.8324Z" fill="#BC8D00"/>
<path d="M51.2013 48.9658H48.0011C47.4676 48.9658 47.0354 48.5334 47.0354 48.0001C47.0354 47.4667 47.4678 47.0343 48.0011 47.0343H51.2013C51.7348 47.0343 52.167 47.4667 52.167 48.0001C52.167 48.5334 51.7346 48.9658 51.2013 48.9658Z" fill="#BC8D00"/>
<path d="M45.8677 32C45.3683 32 44.8746 32.0241 44.3868 32.0689C52.529 32.8162 58.9058 39.6629 58.9058 48C58.9058 56.3371 52.5288 63.1838 44.3867 63.9311C44.8745 63.9759 45.3682 64 45.8676 64C54.7041 64 61.8676 56.8365 61.8676 48C61.8676 39.1635 54.7042 32 45.8677 32Z" fill="#504E48"/>
<path d="M45.8678 36.2666C45.3666 36.2666 44.8727 36.2982 44.3879 36.3592C50.1694 37.0869 54.6414 42.0211 54.6414 48C54.6414 53.9789 50.1694 58.9131 44.3879 59.6407C44.8727 59.7017 45.3666 59.7334 45.8678 59.7334C52.3479 59.7334 57.6012 54.4801 57.6012 48C57.6012 41.5199 52.3479 36.2666 45.8678 36.2666Z" fill="#FFE799"/>
<path d="M45.8677 50.1333C47.046 50.1333 48.0011 49.1782 48.0011 48C48.0011 46.8217 47.046 45.8666 45.8677 45.8666C44.6895 45.8666 43.7344 46.8217 43.7344 48C43.7344 49.1782 44.6895 50.1333 45.8677 50.1333Z" fill="#F2994A"/>
</svg>
